<svg width="48" height="44" viewBox="0 0 48 44" fill="none" xmlns="http://www.w3.org/2000/svg">
<path id="Vector" d="M37.4082 10.7549L31.6691 2.46465C31.2438 1.85149 30.6784 1.34853 30.0199 0.997442C29.3614 0.646355 28.6287 0.457251 27.8825 0.445801L16.9912 0.289551H16.9688C11.3458 0.289551 7.03154 1.23008 4.25293 5.82021C1.66602 10.0929 0.5625 17.3711 0.5625 30.1562V31.7187H4.13252L1.83438 43.4375C9.59355 43.4375 18.0602 43.4375 29.3954 43.4375L29.4605 33.0378L39.0992 31.3874C41.2828 31.1189 42.8938 30.4152 44.0236 29.2367C44.9895 28.2291 45.5772 26.9418 45.9298 25.0617L47.4375 17.0202V12.4264L37.4082 10.7549Z" fill="#112025"/>
</svg>
